<svg id="wave" style="transform:rotate(180deg); transition: 0.3s" viewBox="0 0 1440 490" version="1.1" xmlns="http://www.w3.org/2000/svg"><defs><linearGradient id="sw-gradient-0" x1="0" x2="0" y1="1" y2="0"><stop stop-color="rgba(242, 61, 61, 1)" offset="0%"></stop><stop stop-color="rgba(242, 131, 34, 1)" offset="100%"></stop></linearGradient></defs><path style="transform:translate(0, 0px); opacity:1" fill="url(#sw-gradient-0)" d="M0,49L60,73.5C120,98,240,147,360,155.2C480,163,600,131,720,98C840,65,960,33,1080,49C1200,65,1320,131,1440,130.7C1560,131,1680,65,1800,81.7C1920,98,2040,196,2160,196C2280,196,2400,98,2520,81.7C2640,65,2760,131,2880,147C3000,163,3120,131,3240,171.5C3360,212,3480,327,3600,334.8C3720,343,3840,245,3960,187.8C4080,131,4200,114,4320,155.2C4440,196,4560,294,4680,302.2C4800,310,4920,229,5040,204.2C5160,180,5280,212,5400,212.3C5520,212,5640,180,5760,187.8C5880,196,6000,245,6120,269.5C6240,294,6360,294,6480,261.3C6600,229,6720,163,6840,138.8C6960,114,7080,131,7200,187.8C7320,245,7440,343,7560,392C7680,441,7800,441,7920,441C8040,441,8160,441,8280,424.7C8400,408,8520,376,8580,359.3L8640,343L8640,490L8580,490C8520,490,8400,490,8280,490C8160,490,8040,490,7920,490C7800,490,7680,490,7560,490C7440,490,7320,490,7200,490C7080,490,6960,490,6840,490C6720,490,6600,490,6480,490C6360,490,6240,490,6120,490C6000,490,5880,490,5760,490C5640,490,5520,490,5400,490C5280,490,5160,490,5040,490C4920,490,4800,490,4680,490C4560,490,4440,490,4320,490C4200,490,4080,490,3960,490C3840,490,3720,490,3600,490C3480,490,3360,490,3240,490C3120,490,3000,490,2880,490C2760,490,2640,490,2520,490C2400,490,2280,490,2160,490C2040,490,1920,490,1800,490C1680,490,1560,490,1440,490C1320,490,1200,490,1080,490C960,490,840,490,720,490C600,490,480,490,360,490C240,490,120,490,60,490L0,490Z"></path></svg>
